<svg width="33" height="33" viewBox="0 0 33 33" fill="none" xmlns="http://www.w3.org/2000/svg">
<path d="M5.7748 6.6001C5.11839 6.6001 4.48887 6.86086 4.02472 7.32501C3.56056 7.78916 3.2998 8.41869 3.2998 9.0751V20.6251C3.2998 21.2815 3.56056 21.911 4.02472 22.3752C4.48887 22.8393 5.11839 23.1001 5.7748 23.1001H23.9248C24.5812 23.1001 25.2107 22.8393 25.6749 22.3752C26.139 21.911 26.3998 21.2815 26.3998 20.6251V9.0751C26.3998 8.41869 26.139 7.78916 25.6749 7.32501C25.2107 6.86086 24.5812 6.6001 23.9248 6.6001H5.7748ZM9.8998 8.2501V9.9001C9.8998 10.7753 9.55213 11.6147 8.93326 12.2336C8.31439 12.8524 7.47502 13.2001 6.5998 13.2001H4.9498V11.5501H6.5998C7.03741 11.5501 7.4571 11.3763 7.76653 11.0668C8.07597 10.7574 8.2498 10.3377 8.2498 9.9001V8.2501H9.8998ZM14.8498 17.7376C14.084 17.7376 13.3495 17.4334 12.808 16.8919C12.2665 16.3504 11.9623 15.6159 11.9623 14.8501C11.9623 14.0843 12.2665 13.3498 12.808 12.8083C13.3495 12.2668 14.084 11.9626 14.8498 11.9626C15.6156 11.9626 16.3501 12.2668 16.8916 12.8083C17.4331 13.3498 17.7373 14.0843 17.7373 14.8501C17.7373 15.6159 17.4331 16.3504 16.8916 16.8919C16.3501 17.4334 15.6156 17.7376 14.8498 17.7376ZM4.9498 18.1501V16.5001H6.5998C7.47502 16.5001 8.31439 16.8478 8.93326 17.4666C9.55213 18.0855 9.8998 18.9249 9.8998 19.8001V21.4501H8.2498V19.8001C8.2498 19.3625 8.07597 18.9428 7.76653 18.6334C7.4571 18.3239 7.03741 18.1501 6.5998 18.1501H4.9498ZM23.0998 18.1501C22.6622 18.1501 22.2425 18.3239 21.9331 18.6334C21.6236 18.9428 21.4498 19.3625 21.4498 19.8001V21.4501H19.7998V19.8001C19.7998 18.9249 20.1475 18.0855 20.7664 17.4666C21.3852 16.8478 22.2246 16.5001 23.0998 16.5001H24.7498V18.1501H23.0998ZM23.0998 11.5501H24.7498V13.2001H23.0998C22.2246 13.2001 21.3852 12.8524 20.7664 12.2336C20.1475 11.6147 19.7998 10.7753 19.7998 9.9001V8.2501H21.4498V9.9001C21.4498 10.3377 21.6236 10.7574 21.9331 11.0668C22.2425 11.3763 22.6622 11.5501 23.0998 11.5501ZM28.0498 20.6251C28.0498 21.7191 27.6152 22.7683 26.8416 23.5419C26.068 24.3155 25.0188 24.7501 23.9248 24.7501H6.74005C6.91073 25.2329 7.22694 25.6508 7.64509 25.9463C8.06325 26.2418 8.56277 26.4004 9.0748 26.4001H23.9248C25.4564 26.4001 26.9253 25.7917 28.0083 24.7086C29.0914 23.6256 29.6998 22.1567 29.6998 20.6251V12.3751C29.7001 11.8631 29.5415 11.3635 29.246 10.9454C28.9505 10.5272 28.5326 10.211 28.0498 10.0403V20.6251Z" fill="#1C4B81"/>
</svg>