<svg width="33" height="33" viewBox="0 0 33 33" fill="none" xmlns="http://www.w3.org/2000/svg">
<path d="M18.5604 9.28125V2.0625H13.4042C12.5837 2.0625 11.7968 2.38845 11.2166 2.96864C10.6364 3.54883 10.3104 4.33574 10.3104 5.15625V23.7188C10.3104 24.5393 10.6364 25.3262 11.2166 25.9064C11.7968 26.4866 12.5837 26.8125 13.4042 26.8125H25.7812C26.6018 26.8125 27.3887 26.4866 27.9689 25.9064C28.5491 25.3262 28.875 24.5393 28.875 23.7188V12.375H21.6521C20.8316 12.375 20.0447 12.0491 19.4645 11.4689C18.8843 10.8887 18.5604 10.1018 18.5604 9.28125ZM20.6229 9.28125V2.57812L28.3573 10.3125H21.6542C21.3807 10.3125 21.1184 10.2039 20.925 10.0105C20.7316 9.81706 20.6229 9.55475 20.6229 9.28125ZM6.1875 8.25C6.1875 7.70299 6.4048 7.17839 6.79159 6.79159C7.17839 6.4048 7.70299 6.1875 8.25 6.1875V23.7188C8.25 25.0863 8.79325 26.3978 9.76023 27.3648C10.7272 28.3318 12.0387 28.875 13.4062 28.875H24.75C24.75 29.422 24.5327 29.9466 24.1459 30.3334C23.7591 30.7202 23.2345 30.9375 22.6875 30.9375H13.5218C11.5766 30.9375 9.71109 30.1648 8.33565 28.7893C6.96021 27.4139 6.1875 25.5484 6.1875 23.6033V8.25Z" fill="#1C4B81"/>
</svg>