<svg width="40" height="41" viewBox="0 0 40 41" fill="none" xmlns="http://www.w3.org/2000/svg">
<rect width="40" height="40" transform="translate(0 0.5)" fill="#F1F3F7"/>
<path fill-rule="evenodd" clip-rule="evenodd" d="M20.0002 14.1002C18.6045 14.1002 17.473 15.2317 17.473 16.6274C17.473 18.0231 18.6045 19.1546 20.0002 19.1546C21.396 19.1546 22.5274 18.0231 22.5274 16.6274C22.5274 15.2317 21.396 14.1002 20.0002 14.1002ZM16.2344 16.6274C16.2344 14.5476 17.9204 12.8616 20.0002 12.8616C22.0801 12.8616 23.7661 14.5476 23.7661 16.6274C23.7661 18.7072 22.0801 20.3933 20.0002 20.3933C17.9204 20.3933 16.2344 18.7072 16.2344 16.6274Z" fill="#838383"/>
<path fill-rule="evenodd" clip-rule="evenodd" d="M15.2758 22.9427C16.4076 22.2672 17.9389 21.8171 20.0001 21.8171C22.0612 21.8171 23.5925 22.2672 24.7243 22.9427C25.8566 23.6186 26.5529 24.4987 26.9771 25.3019L26.9771 25.3019C27.3567 26.0207 27.2325 26.7666 26.8016 27.3076C26.3872 27.828 25.7127 28.1386 24.9885 28.1386H15.0116C14.2875 28.1386 13.6129 27.828 13.1985 27.3076C12.7676 26.7665 12.6435 26.0207 13.0231 25.3019C13.4473 24.4987 14.1436 23.6186 15.2758 22.9427ZM15.9107 24.0063C15.0028 24.5483 14.4537 25.2455 14.1184 25.8804L14.1184 25.8804C13.9818 26.1391 14.0252 26.3573 14.1675 26.536C14.3262 26.7353 14.6302 26.9 15.0116 26.9H24.9885C25.37 26.9 25.674 26.7353 25.8327 26.536C25.9749 26.3573 26.0184 26.1391 25.8818 25.8804C25.5465 25.2455 24.9973 24.5483 24.0894 24.0063C23.1811 23.4641 21.8774 23.0558 20.0001 23.0558C18.1228 23.0558 16.8191 23.4641 15.9107 24.0063Z" fill="#838383"/>
</svg>
