<svg width="24" height="24" viewBox="0 0 24 24" fill="none" xmlns="http://www.w3.org/2000/svg">
<path d="M11.9973 9.16525C10.1611 9.16525 8.66262 10.6638 8.66262 12.5C8.66262 14.3362 10.1611 15.8348 11.9973 15.8348C13.8335 15.8348 15.332 14.3362 15.332 12.5C15.332 10.6638 13.8335 9.16525 11.9973 9.16525ZM21.9989 12.5C21.9989 11.1191 22.0114 9.75064 21.9338 8.37221C21.8563 6.77113 21.4911 5.35017 20.3203 4.17938C19.147 3.00609 17.7286 2.64334 16.1275 2.56579C14.7466 2.48824 13.3782 2.50074 11.9998 2.50074C10.6189 2.50074 9.25051 2.48824 7.8721 2.56579C6.27105 2.64334 4.85012 3.00859 3.67935 4.17938C2.50608 5.35267 2.14334 6.77113 2.06579 8.37221C1.98824 9.75314 2.00074 11.1216 2.00074 12.5C2.00074 13.8784 1.98824 15.2494 2.06579 16.6278C2.14334 18.2289 2.50858 19.6498 3.67935 20.8206C4.85262 21.9939 6.27105 22.3567 7.8721 22.4342C9.25301 22.5118 10.6214 22.4993 11.9998 22.4993C13.3807 22.4993 14.7491 22.5118 16.1275 22.4342C17.7286 22.3567 19.1495 21.9914 20.3203 20.8206C21.4936 19.6473 21.8563 18.2289 21.9338 16.6278C22.0139 15.2494 21.9989 13.8809 21.9989 12.5ZM11.9973 17.631C9.15795 17.631 6.86644 15.3394 6.86644 12.5C6.86644 9.66058 9.15795 7.36903 11.9973 7.36903C14.8367 7.36903 17.1282 9.66058 17.1282 12.5C17.1282 15.3394 14.8367 17.631 11.9973 17.631ZM17.3383 8.3572C16.6754 8.3572 16.14 7.82184 16.14 7.15889C16.14 6.49594 16.6754 5.96058 17.3383 5.96058C18.0013 5.96058 18.5366 6.49594 18.5366 7.15889C18.5368 7.31631 18.5059 7.47222 18.4458 7.6177C18.3856 7.76317 18.2974 7.89535 18.1861 8.00666C18.0748 8.11798 17.9426 8.20624 17.7971 8.26639C17.6516 8.32654 17.4957 8.3574 17.3383 8.3572Z" fill="#262524"/>
</svg>
