<svg width="34" height="34" viewBox="0 0 34 34" fill="none" xmlns="http://www.w3.org/2000/svg">
<path d="M28.8201 24.3047H26.4859C26.3265 24.3047 26.1771 24.3745 26.0775 24.4973C25.8451 24.7795 25.5961 25.0518 25.3337 25.3108C24.2609 26.3847 22.9902 27.2405 21.5918 27.8309C20.143 28.4428 18.5858 28.7568 17.013 28.754C15.4226 28.754 13.882 28.4418 12.4343 27.8309C11.0359 27.2405 9.76516 26.3847 8.69234 25.3108C7.61761 24.2405 6.76064 22.972 6.1689 21.5754C5.55465 20.1278 5.24586 18.5905 5.24586 17.0001C5.24586 15.4096 5.55797 13.8723 6.1689 12.4247C6.75992 11.0268 7.60992 9.76841 8.69234 8.68931C9.77476 7.61021 11.0332 6.76021 12.4343 6.16919C13.882 5.55825 15.4226 5.24614 17.013 5.24614C18.6035 5.24614 20.1441 5.55493 21.5918 6.16919C22.9929 6.76021 24.2513 7.61021 25.3337 8.68931C25.5961 8.95161 25.8418 9.22388 26.0775 9.50278C26.1771 9.62564 26.3298 9.69536 26.4859 9.69536H28.8201C29.0293 9.69536 29.1587 9.46294 29.0425 9.28696C26.4959 5.32915 22.04 2.70943 16.9765 2.72271C9.02105 2.74263 2.64273 9.20064 2.72242 17.1461C2.80211 24.9655 9.17047 31.2774 17.013 31.2774C22.0632 31.2774 26.4992 28.661 29.0425 24.7131C29.1554 24.5372 29.0293 24.3047 28.8201 24.3047ZM31.7718 16.7909L27.0603 13.0721C26.8843 12.9327 26.6287 13.0588 26.6287 13.2813V15.8047H16.2029C16.0568 15.8047 15.9373 15.9243 15.9373 16.0704V17.9297C15.9373 18.0758 16.0568 18.1954 16.2029 18.1954H26.6287V20.7188C26.6287 20.9413 26.8877 21.0674 27.0603 20.928L31.7718 17.2092C31.8036 17.1844 31.8293 17.1526 31.8469 17.1164C31.8646 17.0802 31.8737 17.0404 31.8737 17.0001C31.8737 16.9597 31.8646 16.9199 31.8469 16.8837C31.8293 16.8475 31.8036 16.8157 31.7718 16.7909Z" fill="white"/>
</svg>
