<svg width="353" height="88" viewBox="0 0 353 88" fill="none" xmlns="http://www.w3.org/2000/svg">
<path fill-rule="evenodd" clip-rule="evenodd" d="M0 25.3L14.8241 18.7C29.6483 13.2 59.2966 0 88.0184 0C117.667 0 147.315 13.2 176.963 23.1C205.685 34.1 235.333 41.8 264.982 39.6C294.63 37.4 323.352 25.3 338.176 18.7L353 13.2V78C353 83.5229 348.523 88 343 88H338.176C323.352 88 294.63 88 264.982 88C235.333 88 205.685 88 176.963 88C147.315 88 117.667 88 88.0184 88C59.2966 88 29.6483 88 14.8241 88H10C4.47715 88 0 83.5229 0 78V25.3Z" fill="#262524" fill-opacity="0.8"/>
</svg>