<svg width="42" height="42" viewBox="0 0 42 42" fill="none" xmlns="http://www.w3.org/2000/svg">
<path id="Instagram" fill-rule="evenodd" clip-rule="evenodd" d="M0.626709 21.3478C0.626709 13.2059 0.626709 9.13496 2.56684 6.20278C3.43321 4.89342 4.55455 3.77208 5.8639 2.90571C8.79607 0.965576 12.867 0.965576 21.0088 0.965576C29.1507 0.965576 33.2216 0.965576 36.1538 2.90571C37.4631 3.77208 38.5845 4.89342 39.4508 6.20278C41.391 9.13496 41.391 13.2059 41.391 21.3478C41.391 29.4896 41.391 33.5606 39.4508 36.4927C38.5845 37.8021 37.4631 38.9234 36.1538 39.7898C33.2216 41.7299 29.1507 41.7299 21.0088 41.7299C12.867 41.7299 8.79607 41.7299 5.8639 39.7898C4.55455 38.9234 3.43321 37.8021 2.56684 36.4927C0.626709 33.5606 0.626709 29.4896 0.626709 21.3478ZM31.5595 21.3483C31.5595 27.1761 26.8352 31.9004 21.0075 31.9004C15.1797 31.9004 10.4554 27.1761 10.4554 21.3483C10.4554 15.5206 15.1797 10.7962 21.0075 10.7962C26.8352 10.7962 31.5595 15.5206 31.5595 21.3483ZM21.0075 28.3304C24.8635 28.3304 27.9895 25.2044 27.9895 21.3483C27.9895 17.4922 24.8635 14.3663 21.0075 14.3663C17.1514 14.3663 14.0254 17.4922 14.0254 21.3483C14.0254 25.2044 17.1514 28.3304 21.0075 28.3304ZM31.9758 12.7455C33.3451 12.7455 34.4552 11.6354 34.4552 10.266C34.4552 8.89667 33.3451 7.78659 31.9758 7.78659C30.6064 7.78659 29.4964 8.89667 29.4964 10.266C29.4964 11.6354 30.6064 12.7455 31.9758 12.7455Z" fill="white"/>
</svg>
