<svg width="50" height="37" viewBox="0 0 50 37" fill="none" xmlns="http://www.w3.org/2000/svg">
<path id="YouTube" d="M25.9576 36.0498L15.7585 35.8591C12.4563 35.7927 9.14583 35.9253 5.90835 35.2372C0.983383 34.209 0.634481 29.1677 0.269392 24.939C-0.233663 18.9939 -0.0389156 12.941 0.910415 7.0456C1.44634 3.73766 3.55544 1.76379 6.81708 1.54899C17.8275 0.769471 28.9112 0.861853 39.8972 1.22553C41.0575 1.25887 42.2257 1.44109 43.3698 1.6485C49.0172 2.66012 49.1549 8.37305 49.521 13.1823C49.8861 18.0411 49.732 22.9249 49.0342 27.7506C48.4743 31.7462 47.4032 35.0969 42.8829 35.4204C37.2193 35.8434 31.6857 36.1839 26.0062 36.0755C26.0064 36.0498 25.9738 36.0498 25.9576 36.0498ZM19.9615 25.934C24.2295 23.4298 28.4161 20.9673 32.6597 18.4799C28.3837 15.9756 24.2051 13.5131 19.9615 11.0257V25.934Z" fill="white"/>
</svg>
