<svg width="354" height="228" viewBox="0 0 354 228" fill="none" xmlns="http://www.w3.org/2000/svg">
<path d="M0 8C0 3.58172 3.58172 0 8 0H346C350.418 0 354 3.58172 354 8V228H0V8Z" fill="#F1F3F7"/>
<g filter="url(#filter0_d_122_9377)">
<rect x="145.058" y="88.0577" width="63.8846" height="63.8846" rx="4.44231" fill="#F1F3F7" stroke="#838383" stroke-width="2.11538"/>
<mask id="mask0_122_9377" style="mask-type:alpha" maskUnits="userSpaceOnUse" x="146" y="89" width="62" height="62">
<rect x="146.311" y="89.5432" width="61.343" height="61.3283" rx="2.75" fill="#E1E4ED"/>
</mask>
<g mask="url(#mask0_122_9377)">
<line x1="189.111" y1="87" x2="189.111" y2="155.816" stroke="#B4B9C9" stroke-width="1.375"/>
<line x1="200.534" y1="87" x2="200.534" y2="155.816" stroke="#B4B9C9" stroke-width="1.375"/>
<line x1="177.688" y1="87" x2="177.688" y2="155.816" stroke="#B4B9C9" stroke-width="1.375"/>
<line x1="154.842" y1="87" x2="154.842" y2="155.816" stroke="#B4B9C9" stroke-width="1.375"/>
<line x1="166.264" y1="87" x2="166.264" y2="155.816" stroke="#B4B9C9" stroke-width="1.375"/>
<line x1="142.592" y1="109.297" x2="211.408" y2="109.297" stroke="#B4B9C9" stroke-width="1.375"/>
<line x1="142.592" y1="97.8745" x2="211.408" y2="97.8745" stroke="#B4B9C9" stroke-width="1.375"/>
<line x1="142.592" y1="120.721" x2="211.408" y2="120.721" stroke="#B4B9C9" stroke-width="1.375"/>
<line x1="142.592" y1="143.567" x2="211.408" y2="143.567" stroke="#B4B9C9" stroke-width="1.375"/>
<line x1="142.592" y1="132.144" x2="211.408" y2="132.144" stroke="#B4B9C9" stroke-width="1.375"/>
<rect x="145.034" y="88.2031" width="63.6927" height="63.6775" rx="4.125" fill="url(#paint0_radial_122_9377)"/>
<g filter="url(#filter1_d_122_9377)">
<rect x="162.892" y="109.26" width="28.0195" height="24.8076" fill="white"/>
<path d="M161.602 128.703L167.435 121.284C169.089 119.18 172.252 119.111 173.996 121.141L179.124 127.11M174.696 121.955C176.899 119.153 179.968 115.184 180.168 114.925C180.175 114.916 180.182 114.907 180.189 114.898C181.846 112.808 184.999 112.744 186.739 114.769L191.867 120.739M165.85 135.606H188.151C190.497 135.606 192.398 133.704 192.398 131.358V109.057C192.398 106.711 190.497 104.81 188.151 104.81H165.85C163.504 104.81 161.602 106.711 161.602 109.057V131.358C161.602 133.704 163.504 135.606 165.85 135.606Z" fill="white"/>
<path d="M161.602 128.703L167.435 121.284C169.089 119.18 172.252 119.111 173.996 121.141L179.124 127.11M174.696 121.955C176.899 119.153 179.968 115.184 180.168 114.925C180.175 114.916 180.182 114.907 180.189 114.898C181.846 112.808 184.999 112.744 186.739 114.769L191.867 120.739M165.85 135.606H188.151C190.497 135.606 192.398 133.704 192.398 131.358V109.057C192.398 106.711 190.497 104.81 188.151 104.81H165.85C163.504 104.81 161.602 106.711 161.602 109.057V131.358C161.602 133.704 163.504 135.606 165.85 135.606Z" stroke="#838383" stroke-width="1.69231" stroke-linecap="round" stroke-linejoin="round"/>
<path d="M188.847 134.751H165.666H165.12C163.601 134.751 162.37 133.52 162.37 132.001V129.93C162.37 129.3 162.586 128.69 162.982 128.2L168.648 121.197C169.728 119.863 171.753 119.833 172.871 121.134L178.492 127.674C178.7 127.916 179.027 128.02 179.337 127.941C179.945 127.786 180.176 127.045 179.764 126.572L175.756 121.971L181.303 114.833C182.361 113.471 184.398 113.409 185.538 114.704L191.597 121.588V132.001C191.597 133.52 190.366 134.751 188.847 134.751Z" fill="#E1E4ED"/>
</g>
</g>
</g>
<defs>
<filter id="filter0_d_122_9377" x="138" y="83" width="78" height="78" filterUnits="userSpaceOnUse" color-interpolation-filters="sRGB">
<feFlood flood-opacity="0" result="BackgroundImageFix"/>
<feColorMatrix in="SourceAlpha" type="matrix" values="0 0 0 0 0 0 0 0 0 0 0 0 0 0 0 0 0 0 127 0" result="hardAlpha"/>
<feOffset dy="2"/>
<feGaussianBlur stdDeviation="3"/>
<feComposite in2="hardAlpha" operator="out"/>
<feColorMatrix type="matrix" values="0 0 0 0 0.0969792 0 0 0 0 0.127894 0 0 0 0 0.2375 0 0 0 0.14 0"/>
<feBlend mode="normal" in2="BackgroundImageFix" result="effect1_dropShadow_122_9377"/>
<feBlend mode="normal" in="SourceGraphic" in2="effect1_dropShadow_122_9377" result="shape"/>
</filter>
<filter id="filter1_d_122_9377" x="156.756" y="100.963" width="40.4883" height="40.4883" filterUnits="userSpaceOnUse" color-interpolation-filters="sRGB">
<feFlood flood-opacity="0" result="BackgroundImageFix"/>
<feColorMatrix in="SourceAlpha" type="matrix" values="0 0 0 0 0 0 0 0 0 0 0 0 0 0 0 0 0 0 127 0" result="hardAlpha"/>
<feOffset dy="1"/>
<feGaussianBlur stdDeviation="2"/>
<feComposite in2="hardAlpha" operator="out"/>
<feColorMatrix type="matrix" values="0 0 0 0 0.0969792 0 0 0 0 0.127894 0 0 0 0 0.2375 0 0 0 0.08 0"/>
<feBlend mode="normal" in2="BackgroundImageFix" result="effect1_dropShadow_122_9377"/>
<feBlend mode="normal" in="SourceGraphic" in2="effect1_dropShadow_122_9377" result="shape"/>
</filter>
<radialGradient id="paint0_radial_122_9377" cx="0" cy="0" r="1" gradientUnits="userSpaceOnUse" gradientTransform="translate(176.881 120.042) rotate(90) scale(31.8387 31.8464)">
<stop stop-color="#F6FAFD" stop-opacity="0.28"/>
<stop offset="1" stop-color="#F6FAFD"/>
</radialGradient>
</defs>
</svg>
